<?xml version="1.0" encoding="UTF-8"?>
<!DOCTYPE svg PUBLIC "-//W3C//DTD SVG 1.1//EN" "http://www.w3.org/Graphics/SVG/1.1/DTD/svg11.dtd">
<svg xmlns="http://www.w3.org/2000/svg" version="1.1" width="1023px" height="1024px" style="shape-rendering:geometricPrecision; text-rendering:geometricPrecision; image-rendering:optimizeQuality; fill-rule:evenodd; clip-rule:evenodd" xmlns:xlink="http://www.w3.org/1999/xlink">
<g><path style="opacity:1" fill="#fefefe" d="M -0.5,-0.5 C 340.5,-0.5 681.5,-0.5 1022.5,-0.5C 1022.5,340.833 1022.5,682.167 1022.5,1023.5C 947.833,1023.5 873.167,1023.5 798.5,1023.5C 803.562,958.232 807.728,892.899 811,827.5C 816.27,817.959 821.27,808.292 826,798.5C 827.231,777.345 828.398,756.178 829.5,735C 829.385,732.958 829.051,730.958 828.5,729C 835.233,714.902 838.9,700.069 839.5,684.5C 841.848,684.408 843.514,683.408 844.5,681.5C 845.167,681.167 845.833,680.833 846.5,680.5C 878.803,662.348 909.803,642.181 939.5,620C 967.01,597.643 987.01,569.809 999.5,536.5C 1001.65,534.383 1002.65,531.716 1002.5,528.5C 1004.18,522.95 1003.68,517.617 1001,512.5C 983.586,494.088 965.92,476.088 948,458.5C 939.743,449.421 932.91,439.421 927.5,428.5C 927.245,426.033 926.245,424.033 924.5,422.5C 921.159,413.474 917.826,404.474 914.5,395.5C 914.245,393.033 913.245,391.033 911.5,389.5C 909.948,383.307 907.948,377.307 905.5,371.5C 905.245,369.033 904.245,367.033 902.5,365.5C 902.167,364.167 901.833,362.833 901.5,361.5C 900.586,357.064 898.919,353.064 896.5,349.5C 896.5,349.167 896.5,348.833 896.5,348.5C 896.245,346.033 895.245,344.033 893.5,342.5C 888.533,329.98 883.866,317.314 879.5,304.5C 879.245,302.033 878.245,300.033 876.5,298.5C 872.648,288.951 868.982,279.284 865.5,269.5C 865.245,267.033 864.245,265.033 862.5,263.5C 860.311,258.27 858.311,252.937 856.5,247.5C 856.573,245.973 855.906,244.973 854.5,244.5C 851.132,235.009 847.466,225.675 843.5,216.5C 843.245,214.033 842.245,212.033 840.5,210.5C 838.814,205.323 836.814,200.323 834.5,195.5C 834.245,193.033 833.245,191.033 831.5,189.5C 828.997,183.576 826.664,177.576 824.5,171.5C 824.245,169.033 823.245,167.033 821.5,165.5C 812.363,142.564 802.696,119.897 792.5,97.5C 791.925,94.0884 790.592,91.0884 788.5,88.5C 785.914,82.9876 783.581,77.3209 781.5,71.5C 781.573,69.9731 780.906,68.9731 779.5,68.5C 773.328,53.8207 766.328,39.4873 758.5,25.5C 755.568,21.7316 752.901,21.7316 750.5,25.5C 748.613,27.7886 747.279,30.4553 746.5,33.5C 740.925,45.6978 735.425,58.0311 730,70.5C 727.009,77.9742 724.509,85.6409 722.5,93.5C 720.755,95.0326 719.755,97.0326 719.5,99.5C 717.363,106.579 715.029,113.579 712.5,120.5C 709.623,125.308 707.956,130.641 707.5,136.5C 706.119,144.027 704.119,151.361 701.5,158.5C 699.446,161.008 698.446,164.008 698.5,167.5C 697.476,171.591 696.143,175.591 694.5,179.5C 693.076,181.515 692.41,183.848 692.5,186.5C 691.262,188.214 690.595,190.214 690.5,192.5C 689.094,192.973 688.427,193.973 688.5,195.5C 687.948,199.227 686.282,202.394 683.5,205C 663.358,206.063 643.358,206.897 623.5,207.5C 619.215,208.295 614.881,208.628 610.5,208.5C 600.514,209.034 590.847,210.7 581.5,213.5C 577.159,213.658 573.159,214.658 569.5,216.5C 566.097,216.851 562.763,217.518 559.5,218.5C 556.848,218.41 554.515,219.076 552.5,220.5C 550.708,220.366 549.042,220.699 547.5,221.5C 543.475,221.63 539.809,222.63 536.5,224.5C 533.219,224.42 530.219,225.087 527.5,226.5C 524.848,226.41 522.515,227.076 520.5,228.5C 515.428,229.178 510.428,230.178 505.5,231.5C 501.715,231.369 498.048,230.702 494.5,229.5C 478.989,220.911 463.323,212.578 447.5,204.5C 445.165,201.835 442.165,200.502 438.5,200.5C 436.421,200.029 434.421,199.363 432.5,198.5C 430.967,196.755 428.967,195.755 426.5,195.5C 418.081,193.456 409.748,191.123 401.5,188.5C 398.691,186.103 395.358,184.77 391.5,184.5C 386.822,183.078 382.655,180.744 379,177.5C 373.493,163.484 367.159,149.817 360,136.5C 346.717,115.606 334.717,93.9397 324,71.5C 321.315,67.0728 317.482,65.2395 312.5,66C 311,66.8333 309.833,68 309,69.5C 305.516,87.0703 302.683,104.737 300.5,122.5C 298.473,122.338 296.473,122.505 294.5,123C 293.748,123.671 293.414,124.504 293.5,125.5C 292.778,125.918 292.278,126.584 292,127.5C 291.833,135 291.667,142.5 291.5,150C 292.042,165.503 292.209,181.003 292,196.5C 280.789,215.257 271.455,234.923 264,255.5C 259.086,277.382 256.919,299.548 257.5,322C 257.851,351.566 259.018,381.066 261,410.5C 241.472,390.638 221.638,371.138 201.5,352C 170.719,325.52 140.219,298.686 110,271.5C 93.2426,248.987 76.2426,226.654 59,204.5C 47.1333,190.966 34.2999,178.466 20.5,167C 15.8117,165.675 13.3117,167.509 13,172.5C 8.64856,202.728 7.64856,233.062 10,263.5C 12.2175,295.01 15.8842,326.343 21,357.5C 21.2248,414.537 27.5581,470.87 40,526.5C 54.9815,570.758 67.3149,615.758 77,661.5C 79.3243,677.471 87.4909,689.305 101.5,697C 115.929,704.215 130.595,710.881 145.5,717C 163.258,721.818 181.258,725.485 199.5,728C 222.737,736.546 246.737,740.212 271.5,739C 286.777,746.986 302.61,753.819 319,759.5C 318.737,796.865 314.737,833.865 307,870.5C 296.777,910.392 285.777,950.058 274,989.5C 269.761,1000.97 265.261,1012.3 260.5,1023.5C 173.5,1023.5 86.5,1023.5 -0.5,1023.5C -0.5,682.167 -0.5,340.833 -0.5,-0.5 Z"/></g>
<g><path style="opacity:1" fill="#606060" d="M 845.5,677.5 C 807.036,698.28 767.036,715.447 725.5,729C 698.771,735.382 671.771,740.048 644.5,743C 614.446,743.536 584.779,740.202 555.5,733C 518.134,724.545 481.8,712.878 446.5,698C 415.886,685.526 386.219,671.192 357.5,655C 349.556,650.111 342.056,644.611 335,638.5C 331.777,634.646 329.61,630.312 328.5,625.5C 328.715,564.166 329.048,502.833 329.5,441.5C 330.362,426.176 331.029,410.842 331.5,395.5C 333.489,380.049 334.489,364.382 334.5,348.5C 334.666,340.493 334.5,332.493 334,324.5C 325.744,303.821 317.91,282.988 310.5,262C 301.8,235.836 296.967,209.003 296,181.5C 295.5,163.17 295.333,144.836 295.5,126.5C 304.263,129.212 312.596,133.045 320.5,138C 343.057,152.78 364.723,168.78 385.5,186C 403.367,191.631 421.033,197.631 438.5,204C 459.679,214.173 480.513,225.006 501,236.5C 533.24,227.644 565.74,219.81 598.5,213C 618.431,210.658 638.431,209.491 658.5,209.5C 666.174,209.666 673.841,209.5 681.5,209C 684.548,208.394 687.048,206.894 689,204.5C 699.289,177.636 707.955,150.303 715,122.5C 721.4,104.219 727.9,86.0524 734.5,68C 740.082,54.0004 746.082,40.167 752.5,26.5C 753.5,25.1667 754.5,25.1667 755.5,26.5C 761.625,37.4028 767.459,48.4028 773,59.5C 803.165,129.178 832.832,199.178 862,269.5C 881.822,321.309 901.822,372.976 922,424.5C 927.084,436.231 933.75,446.897 942,456.5C 961.755,475.586 980.755,495.252 999,515.5C 1000.37,518.738 1000.7,522.072 1000,525.5C 986.175,568.978 960.342,603.478 922.5,629C 897.46,646.216 871.793,662.383 845.5,677.5 Z"/></g>
<g><path style="opacity:1" fill="#5e5e5e" d="M 750.5,25.5 C 750.088,28.8025 748.755,31.4691 746.5,33.5C 747.279,30.4553 748.613,27.7886 750.5,25.5 Z"/></g>
<g><path style="opacity:1" fill="#828282" d="M 779.5,68.5 C 780.906,68.9731 781.573,69.9731 781.5,71.5C 780.094,71.0269 779.427,70.0269 779.5,68.5 Z"/></g>
<g><path style="opacity:1" fill="#595959" d="M 788.5,88.5 C 790.592,91.0884 791.925,94.0884 792.5,97.5C 789.835,95.1645 788.502,92.1645 788.5,88.5 Z"/></g>
<g><path style="opacity:1" fill="#8e8e8e" d="M 722.5,93.5 C 722.245,95.9674 721.245,97.9674 719.5,99.5C 719.755,97.0326 720.755,95.0326 722.5,93.5 Z"/></g>
<g><path style="opacity:1" fill="#777777" d="M 300.5,122.5 C 298.066,123.131 295.732,124.131 293.5,125.5C 293.414,124.504 293.748,123.671 294.5,123C 296.473,122.505 298.473,122.338 300.5,122.5 Z"/></g>
<g><path style="opacity:1" fill="#aaaaaa" d="M 712.5,120.5 C 711.136,125.962 709.47,131.296 707.5,136.5C 707.956,130.641 709.623,125.308 712.5,120.5 Z"/></g>
<g><path style="opacity:1" fill="#a5a5a5" d="M 701.5,158.5 C 700.946,161.746 699.946,164.746 698.5,167.5C 698.446,164.008 699.446,161.008 701.5,158.5 Z"/></g>
<g><path style="opacity:1" fill="#171211" d="M 391.5,184.5 C 394.518,186.4 397.851,187.733 401.5,188.5C 409.748,191.123 418.081,193.456 426.5,195.5C 428.033,197.245 430.033,198.245 432.5,198.5C 434.421,199.363 436.421,200.029 438.5,200.5C 441.088,202.592 444.088,203.925 447.5,204.5C 463.323,212.578 478.989,220.911 494.5,229.5C 497.702,233.558 501.369,234.225 505.5,231.5C 510.428,230.178 515.428,229.178 520.5,228.5C 523.152,228.59 525.485,227.924 527.5,226.5C 530.219,225.087 533.219,224.42 536.5,224.5C 540.479,224.258 544.146,223.258 547.5,221.5C 549.042,220.699 550.708,220.366 552.5,220.5C 555.152,220.59 557.485,219.924 559.5,218.5C 562.763,217.518 566.097,216.851 569.5,216.5C 573.841,216.342 577.841,215.342 581.5,213.5C 591.41,212.571 601.077,210.905 610.5,208.5C 614.881,208.628 619.215,208.295 623.5,207.5C 641.503,207.333 659.503,207.5 677.5,208C 670.987,208.172 664.653,208.672 658.5,209.5C 638.431,209.491 618.431,210.658 598.5,213C 565.74,219.81 533.24,227.644 501,236.5C 480.513,225.006 459.679,214.173 438.5,204C 421.033,197.631 403.367,191.631 385.5,186C 364.723,168.78 343.057,152.78 320.5,138C 312.596,133.045 304.263,129.212 295.5,126.5C 295.333,144.836 295.5,163.17 296,181.5C 296.967,209.003 301.8,235.836 310.5,262C 317.91,282.988 325.744,303.821 334,324.5C 334.5,332.493 334.666,340.493 334.5,348.5C 332.967,363.981 331.967,379.647 331.5,395.5C 331.029,410.842 330.362,426.176 329.5,441.5C 327.595,502.828 327.262,564.161 328.5,625.5C 329.61,630.312 331.777,634.646 335,638.5C 342.056,644.611 349.556,650.111 357.5,655C 386.219,671.192 415.886,685.526 446.5,698C 481.8,712.878 518.134,724.545 555.5,733C 584.779,740.202 614.446,743.536 644.5,743C 671.771,740.048 698.771,735.382 725.5,729C 767.036,715.447 807.036,698.28 845.5,677.5C 846.404,678.209 846.737,679.209 846.5,680.5C 845.833,680.833 845.167,681.167 844.5,681.5C 842.326,681.75 840.659,682.75 839.5,684.5C 838.9,700.069 835.233,714.902 828.5,729C 829.051,730.958 829.385,732.958 829.5,735C 828.398,756.178 827.231,777.345 826,798.5C 821.27,808.292 816.27,817.959 811,827.5C 807.728,892.899 803.562,958.232 798.5,1023.5C 797.5,1023.5 796.5,1023.5 795.5,1023.5C 797.335,993.815 799.501,964.148 802,934.5C 803.447,901.12 805.114,867.787 807,834.5C 804.162,841.672 799.495,847.338 793,851.5C 786.528,877.249 777.861,902.249 767,926.5C 751.366,959.775 734.199,992.108 715.5,1023.5C 714.167,1023.5 712.833,1023.5 711.5,1023.5C 737.597,981.64 759.764,937.64 778,891.5C 790.116,855.705 798.116,819.039 802,781.5C 789.024,805.449 777.691,830.116 768,855.5C 757.515,877.149 745.515,897.816 732,917.5C 726.333,928.167 720.667,938.833 715,949.5C 712.407,953.212 708.907,955.545 704.5,956.5C 694.784,950.958 685.451,944.791 676.5,938C 662.833,927 649.167,916 635.5,905C 596.234,870.404 557.567,835.071 519.5,799C 495.93,774.767 473.097,749.934 451,724.5C 444.033,715.41 438.2,705.576 433.5,695C 412.592,685.88 391.926,676.213 371.5,666C 358.655,658.747 346.322,650.747 334.5,642C 331.182,638.686 328.682,634.852 327,630.5C 326.108,622.508 325.275,614.508 324.5,606.5C 313.393,615.63 308.393,627.464 309.5,642C 308.645,648.447 310.145,654.281 314,659.5C 318.022,664.021 321.856,668.688 325.5,673.5C 325,673.833 324.5,674.167 324,674.5C 321.888,673.392 320.054,671.892 318.5,670C 317.668,669.312 317.002,669.479 316.5,670.5C 314.512,676.783 312.679,683.116 311,689.5C 310.333,696.167 310.333,702.833 311,709.5C 313.378,719.679 316.378,729.679 320,739.5C 324.089,745.593 328.922,751.093 334.5,756C 366.211,782.046 398.211,807.713 430.5,833C 444.335,842.421 458.668,851.087 473.5,859C 476.485,859.868 479.485,860.201 482.5,860C 437.667,811.833 392.833,763.667 348,715.5C 347.517,714.552 347.351,713.552 347.5,712.5C 353.368,716.857 358.868,721.857 364,727.5C 431.333,800.167 498.667,872.833 566,945.5C 591.736,971.34 617.236,997.34 642.5,1023.5C 640.833,1023.5 639.167,1023.5 637.5,1023.5C 616.177,1000.68 594.344,978.344 572,956.5C 543.868,925.366 515.368,894.533 486.5,864C 481.749,863.811 477.083,863.145 472.5,862C 457.701,854.1 443.367,845.434 429.5,836C 394.088,808.592 359.254,780.425 325,751.5C 324,755.167 323,758.833 322,762.5C 321.863,799.262 317.863,835.596 310,871.5C 300.839,905.144 291.839,938.811 283,972.5C 276.924,989.563 270.758,1006.56 264.5,1023.5C 263.167,1023.5 261.833,1023.5 260.5,1023.5C 265.261,1012.3 269.761,1000.97 274,989.5C 285.777,950.058 296.777,910.392 307,870.5C 314.737,833.865 318.737,796.865 319,759.5C 302.61,753.819 286.777,746.986 271.5,739C 246.737,740.212 222.737,736.546 199.5,728C 181.258,725.485 163.258,721.818 145.5,717C 130.595,710.881 115.929,704.215 101.5,697C 87.4909,689.305 79.3243,677.471 77,661.5C 67.3149,615.758 54.9815,570.758 40,526.5C 27.5581,470.87 21.2248,414.537 21,357.5C 15.8842,326.343 12.2175,295.01 10,263.5C 7.64856,233.062 8.64856,202.728 13,172.5C 13.3117,167.509 15.8117,165.675 20.5,167C 34.2999,178.466 47.1333,190.966 59,204.5C 76.2426,226.654 93.2426,248.987 110,271.5C 140.219,298.686 170.719,325.52 201.5,352C 221.638,371.138 241.472,390.638 261,410.5C 259.018,381.066 257.851,351.566 257.5,322C 256.919,299.548 259.086,277.382 264,255.5C 271.455,234.923 280.789,215.257 292,196.5C 292.209,181.003 292.042,165.503 291.5,150C 291.667,142.5 291.833,135 292,127.5C 292.278,126.584 292.778,125.918 293.5,125.5C 295.732,124.131 298.066,123.131 300.5,122.5C 302.683,104.737 305.516,87.0703 309,69.5C 309.833,68 311,66.8333 312.5,66C 317.482,65.2395 321.315,67.0728 324,71.5C 334.717,93.9397 346.717,115.606 360,136.5C 367.159,149.817 373.493,163.484 379,177.5C 382.655,180.744 386.822,183.078 391.5,184.5 Z"/></g>
<g><path style="opacity:1" fill="#f07f70" d="M 313.5,68.5 C 316.617,68.6423 319.117,69.9756 321,72.5C 333.319,97.1446 346.652,121.145 361,144.5C 365.615,153.713 369.615,163.046 373,172.5C 350.422,154.793 326.588,138.96 301.5,125C 302,124.5 302.5,124 303,123.5C 305.559,107.148 308.225,90.8146 311,74.5C 311.236,72.1887 312.069,70.1887 313.5,68.5 Z"/></g>
<g><path style="opacity:1" fill="#8e8e8e" d="M 821.5,165.5 C 823.245,167.033 824.245,169.033 824.5,171.5C 822.755,169.967 821.755,167.967 821.5,165.5 Z"/></g>
<g><path style="opacity:1" fill="#f38071" d="M 318.5,493.5 C 317.984,514.685 317.317,535.852 316.5,557C 316.32,571.881 316.987,586.714 318.5,601.5C 317.825,604.178 317.158,606.844 316.5,609.5C 312.652,613.855 309.819,618.855 308,624.5C 275.192,567.379 241.192,511.046 206,455.5C 192.749,435.569 177.249,417.402 159.5,401C 158.552,400.517 157.552,400.351 156.5,400.5C 156.281,401.675 156.614,402.675 157.5,403.5C 166.516,411.683 175.016,420.349 183,429.5C 193.578,443.657 203.912,457.99 214,472.5C 245.67,524.503 276.837,576.836 307.5,629.5C 306.774,633.522 305.941,637.522 305,641.5C 278.226,609 249.393,578.333 218.5,549.5C 218.611,548.883 218.944,548.383 219.5,548C 212.044,538.209 204.211,528.709 196,519.5C 194.414,517.33 193.08,514.996 192,512.5C 184.809,504.311 177.309,496.477 169.5,489C 165.802,486.814 162.468,484.147 159.5,481C 157.888,480.28 156.388,480.446 155,481.5C 154.19,486.257 154.524,490.924 156,495.5C 162.204,510.12 169.704,523.787 178.5,536.5C 197.955,596.277 230.622,647.443 276.5,690C 244.409,675.254 213.742,657.921 184.5,638C 165.672,622.182 150.172,603.682 138,582.5C 128.885,566.604 120.552,550.271 113,533.5C 102.944,506.389 92.6109,479.389 82,452.5C 70.6928,418.606 59.6928,384.606 49,350.5C 45.6975,338.352 43.3642,326.019 42,313.5C 41,312.167 40,312.167 39,313.5C 39.9216,326.692 42.255,339.692 46,352.5C 65.1935,419.087 88.5268,484.087 116,547.5C 130.954,580.926 151.454,610.426 177.5,636C 183.552,641.053 189.885,645.719 196.5,650C 232.856,671.515 269.856,692.015 307.5,711.5C 310.092,717.197 311.759,723.197 312.5,729.5C 312.649,730.552 312.483,731.552 312,732.5C 296.019,725.425 279.186,722.092 261.5,722.5C 242.464,723.687 223.464,723.687 204.5,722.5C 202.55,723.372 200.55,724.039 198.5,724.5C 176.885,722.346 155.885,717.513 135.5,710C 121.882,703.525 108.549,696.525 95.5,689C 89.6888,684.859 85.8555,679.359 84,672.5C 76.0562,643.666 68.7229,614.666 62,585.5C 55.7961,563.683 49.1294,542.016 42,520.5C 30.8594,468.095 25.1927,415.095 25,361.5C 15.5069,308.905 11.5069,255.905 13,202.5C 13.7601,192.086 15.0934,181.753 17,171.5C 18.0495,170.483 19.2161,170.316 20.5,171C 30.9706,180.47 41.1372,190.303 51,200.5C 70.8824,225.381 90.3824,250.548 109.5,276C 161.764,319.251 211.93,365.085 260,413.5C 275.382,430.613 290.049,448.28 304,466.5C 309.876,474.917 314.709,483.917 318.5,493.5 Z"/></g>
<g><path style="opacity:1" fill="#666666" d="M 694.5,179.5 C 694.59,182.152 693.924,184.485 692.5,186.5C 692.41,183.848 693.076,181.515 694.5,179.5 Z"/></g>
<g><path style="opacity:1" fill="#9d9d9d" d="M 391.5,184.5 C 395.358,184.77 398.691,186.103 401.5,188.5C 397.851,187.733 394.518,186.4 391.5,184.5 Z"/></g>
<g><path style="opacity:1" fill="#828282" d="M 690.5,192.5 C 690.573,194.027 689.906,195.027 688.5,195.5C 688.427,193.973 689.094,192.973 690.5,192.5 Z"/></g>
<g><path style="opacity:1" fill="#757575" d="M 831.5,189.5 C 833.245,191.033 834.245,193.033 834.5,195.5C 832.755,193.967 831.755,191.967 831.5,189.5 Z"/></g>
<g><path style="opacity:1" fill="#818181" d="M 426.5,195.5 C 428.967,195.755 430.967,196.755 432.5,198.5C 430.033,198.245 428.033,197.245 426.5,195.5 Z"/></g>
<g><path style="opacity:1" fill="#a0a0a0" d="M 438.5,200.5 C 442.165,200.502 445.165,201.835 447.5,204.5C 444.088,203.925 441.088,202.592 438.5,200.5 Z"/></g>
<g><path style="opacity:1" fill="#f28071" d="M 307.5,261.5 C 307.473,263.199 306.806,264.533 305.5,265.5C 304.012,287.716 304.512,310.049 307,332.5C 308.682,339.562 310.515,346.562 312.5,353.5C 311.071,356.463 311.571,359.13 314,361.5C 314.375,366.21 315.042,370.877 316,375.5C 318.126,380.332 319.793,385.332 321,390.5C 321.21,401.527 321.71,412.527 322.5,423.5C 321.846,440.672 321.013,458.005 320,475.5C 320.053,478.675 319.22,481.342 317.5,483.5C 312.01,472.844 305.51,462.844 298,453.5C 286.522,439.387 274.689,425.554 262.5,412C 263.72,410.475 264.387,408.641 264.5,406.5C 261.107,369.577 259.94,332.577 261,295.5C 261.383,275.248 265.716,255.914 274,237.5C 279.753,224.986 286.253,212.986 293.5,201.5C 295.924,214.12 298.424,226.787 301,239.5C 303.271,246.811 305.437,254.145 307.5,261.5 Z"/></g>
<g><path style="opacity:1" fill="#525252" d="M 610.5,208.5 C 601.077,210.905 591.41,212.571 581.5,213.5C 590.847,210.7 600.514,209.034 610.5,208.5 Z"/></g>
<g><path style="opacity:1" fill="#5b5b5b" d="M 581.5,213.5 C 577.841,215.342 573.841,216.342 569.5,216.5C 573.159,214.658 577.159,213.658 581.5,213.5 Z"/></g>
<g><path style="opacity:1" fill="#858585" d="M 840.5,210.5 C 842.245,212.033 843.245,214.033 843.5,216.5C 841.755,214.967 840.755,212.967 840.5,210.5 Z"/></g>
<g><path style="opacity:1" fill="#6b6b6b" d="M 559.5,218.5 C 557.485,219.924 555.152,220.59 552.5,220.5C 554.515,219.076 556.848,218.41 559.5,218.5 Z"/></g>
<g><path style="opacity:1" fill="#808080" d="M 547.5,221.5 C 544.146,223.258 540.479,224.258 536.5,224.5C 539.809,222.63 543.475,221.63 547.5,221.5 Z"/></g>
<g><path style="opacity:1" fill="#676767" d="M 527.5,226.5 C 525.485,227.924 523.152,228.59 520.5,228.5C 522.515,227.076 524.848,226.41 527.5,226.5 Z"/></g>
<g><path style="opacity:1" fill="#b3b3b3" d="M 494.5,229.5 C 498.048,230.702 501.715,231.369 505.5,231.5C 501.369,234.225 497.702,233.558 494.5,229.5 Z"/></g>
<g><path style="opacity:1" fill="#777777" d="M 854.5,244.5 C 855.906,244.973 856.573,245.973 856.5,247.5C 855.094,247.027 854.427,246.027 854.5,244.5 Z"/></g>
<g><path style="opacity:1" fill="#b95753" d="M 309.5,266.5 C 317.323,287.484 325.157,308.484 333,329.5C 332.832,347.197 331.832,364.863 330,382.5C 329.667,382.833 329.333,383.167 329,383.5C 326.673,379.347 324.84,375.013 323.5,370.5C 325.233,354.951 326.733,339.284 328,323.5C 325.25,318.869 323.25,313.869 322,308.5C 318.162,302.805 315.995,296.472 315.5,289.5C 312.762,286.334 310.762,282.668 309.5,278.5C 308.501,288.478 308.168,298.478 308.5,308.5C 307.506,298.347 307.172,288.014 307.5,277.5C 308.167,273.833 308.833,270.167 309.5,266.5 Z"/></g>
<g><path style="opacity:1" fill="#7d7d7d" d="M 862.5,263.5 C 864.245,265.033 865.245,267.033 865.5,269.5C 863.755,267.967 862.755,265.967 862.5,263.5 Z"/></g>
<g><path style="opacity:1" fill="#623734" d="M 307.5,261.5 C 308.309,263.028 308.976,264.694 309.5,266.5C 308.833,270.167 308.167,273.833 307.5,277.5C 308.089,273.029 307.423,269.029 305.5,265.5C 306.806,264.533 307.473,263.199 307.5,261.5 Z"/></g>
<g><path style="opacity:1" fill="#f28070" d="M 323.5,370.5 C 313.188,351.208 308.188,330.541 308.5,308.5C 308.168,298.478 308.501,288.478 309.5,278.5C 310.762,282.668 312.762,286.334 315.5,289.5C 315.995,296.472 318.162,302.805 322,308.5C 323.25,313.869 325.25,318.869 328,323.5C 326.733,339.284 325.233,354.951 323.5,370.5 Z"/></g>
<g><path style="opacity:1" fill="#191919" d="M 779.5,68.5 C 779.427,70.0269 780.094,71.0269 781.5,71.5C 783.581,77.3209 785.914,82.9876 788.5,88.5C 788.502,92.1645 789.835,95.1645 792.5,97.5C 802.696,119.897 812.363,142.564 821.5,165.5C 821.755,167.967 822.755,169.967 824.5,171.5C 826.664,177.576 828.997,183.576 831.5,189.5C 831.755,191.967 832.755,193.967 834.5,195.5C 836.814,200.323 838.814,205.323 840.5,210.5C 840.755,212.967 841.755,214.967 843.5,216.5C 847.466,225.675 851.132,235.009 854.5,244.5C 854.427,246.027 855.094,247.027 856.5,247.5C 858.311,252.937 860.311,258.27 862.5,263.5C 862.755,265.967 863.755,267.967 865.5,269.5C 868.982,279.284 872.648,288.951 876.5,298.5C 876.755,300.967 877.755,302.967 879.5,304.5C 883.866,317.314 888.533,329.98 893.5,342.5C 893.755,344.967 894.755,346.967 896.5,348.5C 896.5,348.833 896.5,349.167 896.5,349.5C 897.414,353.936 899.081,357.936 901.5,361.5C 901.833,362.833 902.167,364.167 902.5,365.5C 902.755,367.967 903.755,369.967 905.5,371.5C 907.948,377.307 909.948,383.307 911.5,389.5C 911.755,391.967 912.755,393.967 914.5,395.5C 917.826,404.474 921.159,413.474 924.5,422.5C 924.755,424.967 925.755,426.967 927.5,428.5C 932.91,439.421 939.743,449.421 948,458.5C 965.92,476.088 983.586,494.088 1001,512.5C 1003.68,517.617 1004.18,522.95 1002.5,528.5C 1001.13,530.936 1000.13,533.603 999.5,536.5C 987.01,569.809 967.01,597.643 939.5,620C 909.803,642.181 878.803,662.348 846.5,680.5C 846.737,679.209 846.404,678.209 845.5,677.5C 871.793,662.383 897.46,646.216 922.5,629C 960.342,603.478 986.175,568.978 1000,525.5C 1000.7,522.072 1000.37,518.738 999,515.5C 980.755,495.252 961.755,475.586 942,456.5C 933.75,446.897 927.084,436.231 922,424.5C 901.822,372.976 881.822,321.309 862,269.5C 832.832,199.178 803.165,129.178 773,59.5C 767.459,48.4028 761.625,37.4028 755.5,26.5C 754.5,25.1667 753.5,25.1667 752.5,26.5C 746.082,40.167 740.082,54.0004 734.5,68C 727.9,86.0524 721.4,104.219 715,122.5C 707.955,150.303 699.289,177.636 689,204.5C 687.048,206.894 684.548,208.394 681.5,209C 673.841,209.5 666.174,209.666 658.5,209.5C 664.653,208.672 670.987,208.172 677.5,208C 659.503,207.5 641.503,207.333 623.5,207.5C 643.358,206.897 663.358,206.063 683.5,205C 686.282,202.394 687.948,199.227 688.5,195.5C 689.906,195.027 690.573,194.027 690.5,192.5C 690.595,190.214 691.262,188.214 692.5,186.5C 693.924,184.485 694.59,182.152 694.5,179.5C 696.143,175.591 697.476,171.591 698.5,167.5C 699.946,164.746 700.946,161.746 701.5,158.5C 704.119,151.361 706.119,144.027 707.5,136.5C 709.47,131.296 711.136,125.962 712.5,120.5C 715.029,113.579 717.363,106.579 719.5,99.5C 721.245,97.9674 722.245,95.9674 722.5,93.5C 724.509,85.6409 727.009,77.9742 730,70.5C 735.425,58.0311 740.925,45.6978 746.5,33.5C 748.755,31.4691 750.088,28.8025 750.5,25.5C 752.901,21.7316 755.568,21.7316 758.5,25.5C 766.328,39.4873 773.328,53.8207 779.5,68.5 Z"/></g>
<g><path style="opacity:1" fill="#838383" d="M 876.5,298.5 C 878.245,300.033 879.245,302.033 879.5,304.5C 877.755,302.967 876.755,300.967 876.5,298.5 Z"/></g>
<g><path style="opacity:1" fill="#191919" d="M 754.5,286.5 C 784.372,280.678 807.538,290.345 824,315.5C 849.617,353.805 864.95,396.139 870,442.5C 872.061,462.699 869.061,482.032 861,500.5C 845.863,527.137 824.697,547.47 797.5,561.5C 782.468,568.611 767.802,568.111 753.5,560C 721.918,535.939 700.418,505.105 689,467.5C 686.113,446.874 687.447,426.541 693,406.5C 702.088,376.794 712.088,347.46 723,318.5C 728.22,309.893 734.053,301.726 740.5,294C 744.815,290.678 749.482,288.178 754.5,286.5 Z"/></g>
<g><path style="opacity:1" fill="#8c8c8c" d="M 725.5,320.5 C 725.834,323.491 724.834,325.824 722.5,327.5C 722.935,324.843 723.935,322.509 725.5,320.5 Z"/></g>
<g><path style="opacity:1" fill="#fdfdfd" d="M 758.5,289.5 C 767.188,289.413 775.854,289.747 784.5,290.5C 791.326,291.72 797.659,294.22 803.5,298C 809,302.167 813.833,307 818,312.5C 826.449,324.408 834.115,336.741 841,349.5C 845.743,359.569 849.576,369.902 852.5,380.5C 852.759,383.272 853.759,385.605 855.5,387.5C 858.614,396.957 860.947,406.624 862.5,416.5C 862.044,421.607 863.044,426.274 865.5,430.5C 865.99,439.156 866.323,447.822 866.5,456.5C 866.695,464.632 866.029,472.632 864.5,480.5C 863.076,482.515 862.41,484.848 862.5,487.5C 861.542,489.302 860.875,491.302 860.5,493.5C 858.755,495.033 857.755,497.033 857.5,499.5C 841.413,527.923 818.413,548.589 788.5,561.5C 780.419,563.958 772.419,563.958 764.5,561.5C 762.967,559.755 760.967,558.755 758.5,558.5C 754.249,556.575 750.583,553.908 747.5,550.5C 746.415,548.413 744.749,547.08 742.5,546.5C 717.091,523.678 700.424,495.678 692.5,462.5C 691.257,450.841 691.257,439.174 692.5,427.5C 692.959,420.54 694.292,413.873 696.5,407.5C 698.074,405.898 698.741,403.898 698.5,401.5C 698.232,399.901 698.566,398.568 699.5,397.5C 701.977,392.854 703.644,387.854 704.5,382.5C 704.5,382.167 704.5,381.833 704.5,381.5C 706.277,378.495 707.277,375.162 707.5,371.5C 712.115,356.655 717.115,341.989 722.5,327.5C 724.834,325.824 725.834,323.491 725.5,320.5C 730.413,310.41 737.08,301.577 745.5,294C 749.474,291.341 753.808,289.841 758.5,289.5 Z"/></g>
<g><path style="opacity:1" fill="#9e9e9e" d="M 778.5,313.5 C 780.217,316.845 780.884,320.511 780.5,324.5C 779.475,321.026 778.808,317.36 778.5,313.5 Z"/></g>
<g><path style="opacity:1" fill="#050505" d="M 776.5,311.5 C 777.5,311.833 778.167,312.5 778.5,313.5C 778.808,317.36 779.475,321.026 780.5,324.5C 781.308,332.145 781.975,339.811 782.5,347.5C 782.692,356.406 783.692,365.073 785.5,373.5C 786.244,377.119 786.577,380.785 786.5,384.5C 786.743,393.728 787.743,402.728 789.5,411.5C 790.254,416.463 790.587,421.463 790.5,426.5C 791.747,456.496 791.747,486.496 790.5,516.5C 790.723,524.547 790.223,532.547 789,540.5C 788.751,543.177 787.751,545.51 786,547.5C 784.989,548.337 783.822,548.67 782.5,548.5C 778.227,548.919 774.227,548.252 770.5,546.5C 768.057,542.559 767.057,538.226 767.5,533.5C 768.79,517.858 769.457,502.191 769.5,486.5C 770.166,479.508 770.5,472.341 770.5,465C 770.601,452.636 769.934,440.469 768.5,428.5C 768.164,419.139 767.498,409.806 766.5,400.5C 766.308,391.594 765.308,382.927 763.5,374.5C 762.68,359.95 761.014,345.617 758.5,331.5C 757.816,324.754 757.816,318.088 758.5,311.5C 763.072,308.867 768.072,307.867 773.5,308.5C 773.5,309.5 773.5,310.5 773.5,311.5C 774.5,311.5 775.5,311.5 776.5,311.5 Z"/></g>
<g><path style="opacity:1" fill="#2a2a2a" d="M 776.5,309.5 C 776.5,310.167 776.5,310.833 776.5,311.5C 775.5,311.5 774.5,311.5 773.5,311.5C 773.5,310.5 773.5,309.5 773.5,308.5C 768.072,307.867 763.072,308.867 758.5,311.5C 758.5,311.167 758.5,310.833 758.5,310.5C 759.5,308.833 760.833,307.5 762.5,306.5C 767.806,304.716 772.473,305.716 776.5,309.5 Z"/></g>
<g><path style="opacity:1" fill="#b5b5b5" d="M 776.5,309.5 C 772.473,305.716 767.806,304.716 762.5,306.5C 762.611,305.883 762.944,305.383 763.5,305C 766.5,304.333 769.5,304.333 772.5,305C 774.751,305.748 776.084,307.248 776.5,309.5 Z"/></g>
<g><path style="opacity:1" fill="#6b6b6b" d="M 758.5,289.5 C 761.649,288.835 764.982,288.502 768.5,288.5C 774.077,288.368 779.41,289.035 784.5,290.5C 775.854,289.747 767.188,289.413 758.5,289.5 Z"/></g>
<g><path style="opacity:1" fill="#bebebe" d="M 758.5,310.5 C 758.5,310.833 758.5,311.167 758.5,311.5C 757.816,318.088 757.816,324.754 758.5,331.5C 757.883,331.389 757.383,331.056 757,330.5C 756.333,324.167 756.333,317.833 757,311.5C 757.383,310.944 757.883,310.611 758.5,310.5 Z"/></g>
<g><path style="opacity:1" fill="#7d7d7d" d="M 893.5,342.5 C 895.245,344.033 896.245,346.033 896.5,348.5C 894.755,346.967 893.755,344.967 893.5,342.5 Z"/></g>
<g><path style="opacity:1" fill="#888888" d="M 896.5,349.5 C 898.919,353.064 900.586,357.064 901.5,361.5C 899.081,357.936 897.414,353.936 896.5,349.5 Z"/></g>
<g><path style="opacity:1" fill="#b75552" d="M 312.5,353.5 C 317.146,365.798 322.646,377.798 329,389.5C 329.218,392.426 329.718,395.26 330.5,398C 328.5,431.437 326.667,464.937 325,498.5C 322.489,493.478 319.989,488.478 317.5,483.5C 319.22,481.342 320.053,478.675 320,475.5C 321.013,458.005 321.846,440.672 322.5,423.5C 321.71,412.527 321.21,401.527 321,390.5C 319.793,385.332 318.126,380.332 316,375.5C 315.042,370.877 314.375,366.21 314,361.5C 311.571,359.13 311.071,356.463 312.5,353.5 Z"/></g>
<g><path style="opacity:1" fill="#3c3c3c" d="M 334.5,348.5 C 334.489,364.382 333.489,380.049 331.5,395.5C 331.967,379.647 332.967,363.981 334.5,348.5 Z"/></g>
<g><path style="opacity:1" fill="#929292" d="M 902.5,365.5 C 904.245,367.033 905.245,369.033 905.5,371.5C 903.755,369.967 902.755,367.967 902.5,365.5 Z"/></g>
<g><path style="opacity:1" fill="#5b5b5b" d="M 782.5,347.5 C 784.308,355.927 785.308,364.594 785.5,373.5C 783.692,365.073 782.692,356.406 782.5,347.5 Z"/></g>
<g><path style="opacity:1" fill="#797979" d="M 707.5,371.5 C 707.277,375.162 706.277,378.495 704.5,381.5C 704.723,377.838 705.723,374.505 707.5,371.5 Z"/></g>
<g><path style="opacity:1" fill="#666666" d="M 852.5,380.5 C 854.241,382.395 855.241,384.728 855.5,387.5C 853.759,385.605 852.759,383.272 852.5,380.5 Z"/></g>
<g><path style="opacity:1" fill="#9d9d9d" d="M 704.5,382.5 C 703.644,387.854 701.977,392.854 699.5,397.5C 700.194,392.085 701.86,387.085 704.5,382.5 Z"/></g>
<g><path style="opacity:1" fill="#181818" d="M 488.5,314.5 C 496.542,314.012 504.208,315.512 511.5,319C 524.748,325.911 536.581,334.744 547,345.5C 551.333,351.167 555.667,356.833 560,362.5C 577.309,394.476 588.976,428.476 595,464.5C 596.432,482.711 594.599,500.544 589.5,518C 577.465,538.739 562.798,557.406 545.5,574C 533.148,585.431 518.481,590.097 501.5,588C 476.903,580.368 454.237,569.035 433.5,554C 402.316,526.554 390.483,492.054 398,450.5C 405.782,412.802 421.448,378.802 445,348.5C 457.439,334.192 471.939,322.859 488.5,314.5 Z"/></g>
<g><path style="opacity:1" fill="#9c9c9c" d="M 546.5,350.5 C 548.587,351.585 549.92,353.251 550.5,355.5C 548.413,354.415 547.08,352.749 546.5,350.5 Z"/></g>
<g><path style="opacity:1" fill="#fdfdfd" d="M 500.5,318.5 C 518.945,324.72 534.278,335.387 546.5,350.5C 547.08,352.749 548.413,354.415 550.5,355.5C 553.797,358.736 556.63,362.403 559,366.5C 561.601,372.748 564.601,378.748 568,384.5C 572.727,395.181 576.56,406.181 579.5,417.5C 580.462,421.395 581.796,425.061 583.5,428.5C 583.5,428.833 583.5,429.167 583.5,429.5C 583.259,431.898 583.926,433.898 585.5,435.5C 586.785,438.589 587.451,441.922 587.5,445.5C 587.41,448.152 588.076,450.485 589.5,452.5C 591.97,469.318 592.136,486.318 590,503.5C 588.665,508.183 587.331,512.85 586,517.5C 573.15,540.352 556.65,560.186 536.5,577C 531.901,579.468 527.234,581.635 522.5,583.5C 513.736,585.107 505.069,584.774 496.5,582.5C 496.167,582.5 495.833,582.5 495.5,582.5C 491.767,580.589 487.767,579.256 483.5,578.5C 465.331,570.747 448.331,560.913 432.5,549C 416.62,534.401 406.62,516.568 402.5,495.5C 401.566,480.529 401.232,465.529 401.5,450.5C 409.753,407.827 428.753,370.66 458.5,339C 462.833,335.333 467.167,331.667 471.5,328C 475.155,325.173 479.155,323.007 483.5,321.5C 488.905,319.121 494.572,318.121 500.5,318.5 Z"/></g>
<g><path style="opacity:1" fill="#a8a8a8" d="M 509.5,351.5 C 512.31,372.924 513.643,394.591 513.5,416.5C 513.167,416.5 512.833,416.5 512.5,416.5C 512.101,394.779 511.101,373.112 509.5,351.5 Z"/></g>
<g><path style="opacity:1" fill="#999999" d="M 487.5,340.5 C 487.181,345.363 487.514,350.03 488.5,354.5C 489.068,363.823 489.401,373.156 489.5,382.5C 486.721,368.582 486.054,354.582 487.5,340.5 Z"/></g>
<g><path style="opacity:1" fill="#202020" d="M 501.5,334.5 C 503.404,334.738 504.738,335.738 505.5,337.5C 500.179,336.979 495.179,337.979 490.5,340.5C 489.749,341.376 489.249,342.376 489,343.5C 488.501,347.152 488.335,350.818 488.5,354.5C 487.514,350.03 487.181,345.363 487.5,340.5C 488.167,340.5 488.5,340.167 488.5,339.5C 490.296,338.207 491.963,336.707 493.5,335C 496.146,334.503 498.813,334.336 501.5,334.5 Z"/></g>
<g><path style="opacity:1" fill="#040404" d="M 505.5,337.5 C 506.79,338.058 507.623,339.058 508,340.5C 509.108,344.086 509.608,347.753 509.5,351.5C 511.101,373.112 512.101,394.779 512.5,416.5C 512.679,432.702 513.679,448.702 515.5,464.5C 516.073,472.645 516.74,480.645 517.5,488.5C 517.5,495.5 517.5,502.5 517.5,509.5C 517.806,527.214 517.473,544.88 516.5,562.5C 511.033,567.285 505.366,567.618 499.5,563.5C 499.167,562.5 498.5,561.833 497.5,561.5C 497.5,560.167 497.5,558.833 497.5,557.5C 497.667,538.497 497.5,519.497 497,500.5C 496.809,498.292 496.309,496.292 495.5,494.5C 495.5,494.167 495.5,493.833 495.5,493.5C 495.912,484.6 495.246,475.933 493.5,467.5C 493.665,459.138 493.332,450.805 492.5,442.5C 492.53,431.971 491.863,421.638 490.5,411.5C 489.755,401.852 489.422,392.185 489.5,382.5C 489.401,373.156 489.068,363.823 488.5,354.5C 488.335,350.818 488.501,347.152 489,343.5C 489.249,342.376 489.749,341.376 490.5,340.5C 495.179,337.979 500.179,336.979 505.5,337.5 Z"/></g>
<g><path style="opacity:1" fill="#868686" d="M 501.5,334.5 C 498.813,334.336 496.146,334.503 493.5,335C 491.963,336.707 490.296,338.207 488.5,339.5C 491.175,333.64 495.508,331.973 501.5,334.5 Z"/></g>
<g><path style="opacity:1" fill="#929292" d="M 500.5,318.5 C 494.572,318.121 488.905,319.121 483.5,321.5C 485.385,319.689 487.719,318.522 490.5,318C 494.027,317.192 497.36,317.359 500.5,318.5 Z"/></g>
<g><path style="opacity:1" fill="#7c7c7c" d="M 911.5,389.5 C 913.245,391.033 914.245,393.033 914.5,395.5C 912.755,393.967 911.755,391.967 911.5,389.5 Z"/></g>
<g><path style="opacity:1" fill="#6a6a6a" d="M 763.5,374.5 C 765.308,382.927 766.308,391.594 766.5,400.5C 764.692,392.073 763.692,383.406 763.5,374.5 Z"/></g>
<g><path style="opacity:1" fill="#979797" d="M 698.5,401.5 C 698.741,403.898 698.074,405.898 696.5,407.5C 696.259,405.102 696.926,403.102 698.5,401.5 Z"/></g>
<g><path style="opacity:1" fill="#737373" d="M 786.5,384.5 C 788.298,393.263 789.298,402.263 789.5,411.5C 787.743,402.728 786.743,393.728 786.5,384.5 Z"/></g>
<g><path style="opacity:1" fill="#7a7a7a" d="M 579.5,417.5 C 581.99,420.626 583.323,424.292 583.5,428.5C 581.796,425.061 580.462,421.395 579.5,417.5 Z"/></g>
<g><path style="opacity:1" fill="#959595" d="M 490.5,411.5 C 491.863,421.638 492.53,431.971 492.5,442.5C 491.06,432.367 490.393,422.034 490.5,411.5 Z"/></g>
<g><path style="opacity:1" fill="#929292" d="M 862.5,416.5 C 864.13,420.911 865.13,425.578 865.5,430.5C 863.044,426.274 862.044,421.607 862.5,416.5 Z"/></g>
<g><path style="opacity:1" fill="#828282" d="M 924.5,422.5 C 926.245,424.033 927.245,426.033 927.5,428.5C 925.755,426.967 924.755,424.967 924.5,422.5 Z"/></g>
<g><path style="opacity:1" fill="#8f8f8f" d="M 583.5,429.5 C 585.074,431.102 585.741,433.102 585.5,435.5C 583.926,433.898 583.259,431.898 583.5,429.5 Z"/></g>
<g><path style="opacity:1" fill="#b4b4b4" d="M 692.5,427.5 C 691.257,439.174 691.257,450.841 692.5,462.5C 691.732,461.737 691.232,460.737 691,459.5C 690.833,455 690.667,450.5 690.5,446C 690.289,439.586 690.955,433.419 692.5,427.5 Z"/></g>
<g><path style="opacity:1" fill="#373737" d="M 512.5,416.5 C 512.833,416.5 513.167,416.5 513.5,416.5C 513.178,422.358 513.511,428.025 514.5,433.5C 514.951,443.829 515.284,454.162 515.5,464.5C 513.679,448.702 512.679,432.702 512.5,416.5 Z"/></g>
<g><path style="opacity:1" fill="#828282" d="M 587.5,445.5 C 588.924,447.515 589.59,449.848 589.5,452.5C 588.076,450.485 587.41,448.152 587.5,445.5 Z"/></g>
<g><path style="opacity:1" fill="#8c8c8c" d="M 768.5,428.5 C 769.934,440.469 770.601,452.636 770.5,465C 770.5,472.341 770.166,479.508 769.5,486.5C 769.579,467.157 769.246,447.824 768.5,428.5 Z"/></g>
<g><path style="opacity:1" fill="#787878" d="M 790.5,426.5 C 791.319,429.305 791.819,432.305 792,435.5C 792.167,446.833 792.333,458.167 792.5,469.5C 792.707,485.365 792.041,501.031 790.5,516.5C 791.747,486.496 791.747,456.496 790.5,426.5 Z"/></g>
<g><path style="opacity:1" fill="#7f7f7f" d="M 401.5,450.5 C 401.232,465.529 401.566,480.529 402.5,495.5C 401.732,494.737 401.232,493.737 401,492.5C 400.173,478.327 400.339,464.327 401.5,450.5 Z"/></g>
<g><path style="opacity:1" fill="#c2c2c2" d="M 514.5,433.5 C 516.492,451.624 517.492,469.958 517.5,488.5C 516.74,480.645 516.073,472.645 515.5,464.5C 515.284,454.162 514.951,443.829 514.5,433.5 Z"/></g>
<g><path style="opacity:1" fill="#b65551" d="M 218.5,549.5 C 208.381,539.938 197.048,532.105 184.5,526C 182.231,525.242 180.064,525.409 178,526.5C 177.341,529.888 177.508,533.221 178.5,536.5C 169.704,523.787 162.204,510.12 156,495.5C 154.524,490.924 154.19,486.257 155,481.5C 156.388,480.446 157.888,480.28 159.5,481C 162.468,484.147 165.802,486.814 169.5,489C 177.309,496.477 184.809,504.311 192,512.5C 193.08,514.996 194.414,517.33 196,519.5C 204.211,528.709 212.044,538.209 219.5,548C 218.944,548.383 218.611,548.883 218.5,549.5 Z"/></g>
<g><path style="opacity:1" fill="#7c7c7c" d="M 864.5,480.5 C 864.59,483.152 863.924,485.485 862.5,487.5C 862.41,484.848 863.076,482.515 864.5,480.5 Z"/></g>
<g><path style="opacity:1" fill="#717171" d="M 493.5,467.5 C 495.246,475.933 495.912,484.6 495.5,493.5C 493.928,485.051 493.261,476.384 493.5,467.5 Z"/></g>
<g><path style="opacity:1" fill="#b65451" d="M 318.5,493.5 C 319.883,497.246 322.05,500.579 325,503.5C 325.5,536.832 325.667,570.165 325.5,603.5C 324.448,603.351 323.448,603.517 322.5,604C 320.63,606.04 318.63,607.873 316.5,609.5C 317.158,606.844 317.825,604.178 318.5,601.5C 316.987,586.714 316.32,571.881 316.5,557C 317.317,535.852 317.984,514.685 318.5,493.5 Z"/></g>
<g><path style="opacity:1" fill="#8e8e8e" d="M 860.5,493.5 C 860.245,495.967 859.245,497.967 857.5,499.5C 857.755,497.033 858.755,495.033 860.5,493.5 Z"/></g>
<g><path style="opacity:1" fill="#2a2a2a" d="M 495.5,494.5 C 496.309,496.292 496.809,498.292 497,500.5C 497.5,519.497 497.667,538.497 497.5,557.5C 496.833,539.5 496.167,521.5 495.5,503.5C 495.5,500.5 495.5,497.5 495.5,494.5 Z"/></g>
<g><path style="opacity:1" fill="#f17f71" d="M 180.5,528.5 C 182.927,528.523 185.26,529.023 187.5,530C 200.586,537.883 212.586,547.217 223.5,558C 252.507,585.999 279.674,615.499 305,646.5C 307.383,653.597 310.55,660.264 314.5,666.5C 309.726,679.899 307.059,693.566 306.5,707.5C 299.167,703.5 291.833,699.5 284.5,695.5C 273.858,683.69 263.024,672.023 252,660.5C 228.596,634.379 209.929,605.046 196,572.5C 191.391,562.282 187.057,551.948 183,541.5C 181.686,537.246 180.853,532.913 180.5,528.5 Z"/></g>
<g><path style="opacity:1" fill="#8e8e8e" d="M 1002.5,528.5 C 1002.65,531.716 1001.65,534.383 999.5,536.5C 1000.13,533.603 1001.13,530.936 1002.5,528.5 Z"/></g>
<g><path style="opacity:1" fill="#414141" d="M 517.5,509.5 C 518.662,526.662 518.829,543.995 518,561.5C 517.617,562.056 517.117,562.389 516.5,562.5C 517.473,544.88 517.806,527.214 517.5,509.5 Z"/></g>
<g><path style="opacity:1" fill="#b2b2b2" d="M 495.5,503.5 C 496.167,521.5 496.833,539.5 497.5,557.5C 497.5,558.833 497.5,560.167 497.5,561.5C 496.778,561.082 496.278,560.416 496,559.5C 495.5,540.836 495.333,522.17 495.5,503.5 Z"/></g>
<g><path style="opacity:1" fill="#a0a0a0" d="M 742.5,546.5 C 744.749,547.08 746.415,548.413 747.5,550.5C 745.251,549.92 743.585,548.587 742.5,546.5 Z"/></g>
<g><path style="opacity:1" fill="#404040" d="M 770.5,546.5 C 774.227,548.252 778.227,548.919 782.5,548.5C 782.167,549.167 781.833,549.833 781.5,550.5C 778.482,550.296 775.482,549.963 772.5,549.5C 771.833,548.5 771.167,547.5 770.5,546.5 Z"/></g>
<g><path style="opacity:1" fill="#a4a4a4" d="M 772.5,549.5 C 775.482,549.963 778.482,550.296 781.5,550.5C 780.551,551.152 779.385,551.486 778,551.5C 775.779,551.607 773.946,550.94 772.5,549.5 Z"/></g>
<g><path style="opacity:1" fill="#8f8f8f" d="M 758.5,558.5 C 760.967,558.755 762.967,559.755 764.5,561.5C 762.033,561.245 760.033,560.245 758.5,558.5 Z"/></g>
<g><path style="opacity:1" fill="#5d5d5d" d="M 516.5,562.5 C 516.489,564.017 515.823,565.184 514.5,566C 510.594,567.434 506.594,567.767 502.5,567C 501.29,565.961 500.29,564.794 499.5,563.5C 500.29,564.794 501.29,565.961 502.5,567C 506.594,567.767 510.594,567.434 514.5,566C 515.823,565.184 516.489,564.017 516.5,562.5 Z"/></g>
<g><path style="opacity:1" fill="#3d3d3d" d="M 329.5,441.5 C 329.048,502.833 328.715,564.166 328.5,625.5C 327.262,564.161 327.595,502.828 329.5,441.5 Z"/></g>
<g><path style="opacity:1" fill="#8d8d8d" d="M 483.5,578.5 C 487.767,579.256 491.767,580.589 495.5,582.5C 491.085,582.139 487.085,580.806 483.5,578.5 Z"/></g>
<g><path style="opacity:1" fill="#8a8a8a" d="M 496.5,582.5 C 505.069,584.774 513.736,585.107 522.5,583.5C 518.777,584.997 514.777,585.663 510.5,585.5C 505.407,585.908 500.74,584.908 496.5,582.5 Z"/></g>
<g><path style="opacity:1" fill="#f28071" d="M 711.5,1023.5 C 688.5,1023.5 665.5,1023.5 642.5,1023.5C 617.236,997.34 591.736,971.34 566,945.5C 498.667,872.833 431.333,800.167 364,727.5C 358.868,721.857 353.368,716.857 347.5,712.5C 347.351,713.552 347.517,714.552 348,715.5C 392.833,763.667 437.667,811.833 482.5,860C 479.485,860.201 476.485,859.868 473.5,859C 458.668,851.087 444.335,842.421 430.5,833C 398.211,807.713 366.211,782.046 334.5,756C 328.922,751.093 324.089,745.593 320,739.5C 316.378,729.679 313.378,719.679 311,709.5C 310.333,702.833 310.333,696.167 311,689.5C 312.679,683.116 314.512,676.783 316.5,670.5C 317.002,669.479 317.668,669.312 318.5,670C 320.054,671.892 321.888,673.392 324,674.5C 324.5,674.167 325,673.833 325.5,673.5C 321.856,668.688 318.022,664.021 314,659.5C 310.145,654.281 308.645,648.447 309.5,642C 308.393,627.464 313.393,615.63 324.5,606.5C 325.275,614.508 326.108,622.508 327,630.5C 328.682,634.852 331.182,638.686 334.5,642C 346.322,650.747 358.655,658.747 371.5,666C 391.926,676.213 412.592,685.88 433.5,695C 438.2,705.576 444.033,715.41 451,724.5C 473.097,749.934 495.93,774.767 519.5,799C 557.567,835.071 596.234,870.404 635.5,905C 649.167,916 662.833,927 676.5,938C 685.451,944.791 694.784,950.958 704.5,956.5C 708.907,955.545 712.407,953.212 715,949.5C 720.667,938.833 726.333,928.167 732,917.5C 745.515,897.816 757.515,877.149 768,855.5C 777.691,830.116 789.024,805.449 802,781.5C 798.116,819.039 790.116,855.705 778,891.5C 759.764,937.64 737.597,981.64 711.5,1023.5 Z"/></g>
<g><path style="opacity:1" fill="#a2a2a2" d="M 844.5,681.5 C 843.514,683.408 841.848,684.408 839.5,684.5C 840.659,682.75 842.326,681.75 844.5,681.5 Z"/></g>
<g><path style="opacity:1" fill="#f28071" d="M 742.5,895.5 C 726.178,908.005 708.511,918.505 689.5,927C 685.705,927.837 682.039,927.504 678.5,926C 668.668,918.914 658.334,912.581 647.5,907C 639.312,899.978 630.979,893.144 622.5,886.5C 621.893,886.624 621.56,886.957 621.5,887.5C 561.326,837.495 505.493,782.828 454,723.5C 449.169,717.174 444.835,710.508 441,703.5C 439.41,701.35 438.743,699.017 439,696.5C 471.973,711.909 506.139,723.742 541.5,732C 557.658,735.581 573.825,739.081 590,742.5C 609.39,757.945 631.223,768.778 655.5,775C 661.5,778.333 667.5,781.667 673.5,785C 681.095,786.356 688.762,786.856 696.5,786.5C 696.5,785.5 696.5,784.5 696.5,783.5C 689.621,783.778 682.788,783.445 676,782.5C 672.983,782.005 670.483,780.671 668.5,778.5C 669.852,777.476 671.185,776.476 672.5,775.5C 673.15,775.804 673.817,776.137 674.5,776.5C 686.459,771.671 698.459,766.838 710.5,762C 720.754,757.205 730.754,751.872 740.5,746C 755.706,736.236 770.706,726.236 785.5,716C 790.167,714 794.833,712 799.5,710C 801.265,709.36 802.932,709.527 804.5,710.5C 798.527,721.774 792.027,732.774 785,743.5C 762.977,775.544 739.977,806.877 716,837.5C 708.206,846.136 699.706,853.803 690.5,860.5C 681.06,857.517 671.727,854.017 662.5,850C 656.391,845.949 650.058,842.449 643.5,839.5C 621.521,817.854 599.521,796.188 577.5,774.5C 576.479,775.002 576.312,775.668 577,776.5C 602.167,801.667 627.333,826.833 652.5,852C 661.167,858.671 670.501,864.338 680.5,869C 681.833,869.667 683.167,869.667 684.5,869C 695.661,860.318 706.161,850.818 716,840.5C 750.115,798.378 781.115,754.045 809,707.5C 809.728,704.77 809.562,702.103 808.5,699.5C 817.465,694.84 826.465,690.173 835.5,685.5C 836.601,690.846 836.434,696.179 835,701.5C 832.061,710.985 828.727,720.319 825,729.5C 810.589,758.656 795.922,787.656 781,816.5C 770.795,844.24 757.962,870.574 742.5,895.5 Z"/></g>
<g><path style="opacity:1" fill="#b55451" d="M 804.5,710.5 C 802.932,709.527 801.265,709.36 799.5,710C 794.833,712 790.167,714 785.5,716C 770.706,726.236 755.706,736.236 740.5,746C 730.754,751.872 720.754,757.205 710.5,762C 698.459,766.838 686.459,771.671 674.5,776.5C 673.817,776.137 673.15,775.804 672.5,775.5C 690.387,762.461 707.887,748.794 725,734.5C 723.899,732.208 724.732,730.708 727.5,730C 754.486,722.066 780.486,711.899 805.5,699.5C 808.148,703.322 807.814,706.989 804.5,710.5 Z"/></g>
<g><path style="opacity:1" fill="#b35350" d="M 312.5,729.5 C 315.142,736.283 318.476,742.783 322.5,749C 321.791,751.629 320.791,754.129 319.5,756.5C 312.278,753.389 304.944,750.556 297.5,748C 290.626,744.063 283.626,740.397 276.5,737C 262.194,735.889 247.861,734.889 233.5,734C 221.585,731.274 209.918,728.107 198.5,724.5C 200.55,724.039 202.55,723.372 204.5,722.5C 223.464,723.687 242.464,723.687 261.5,722.5C 279.186,722.092 296.019,725.425 312,732.5C 312.483,731.552 312.649,730.552 312.5,729.5 Z"/></g>
<g><path style="opacity:1" fill="#b55451" d="M 719.5,731.5 C 722.106,732.85 722.106,734.35 719.5,736C 701.887,750.285 683.72,763.785 665,776.5C 653.434,771.421 641.601,766.921 629.5,763C 618.469,757.825 608.136,751.659 598.5,744.5C 599.242,743.713 600.075,743.047 601,742.5C 620.736,746.206 640.569,746.373 660.5,743C 671.847,741.427 683.181,739.76 694.5,738C 703.142,736.512 711.476,734.346 719.5,731.5 Z"/></g>
<g><path style="opacity:1" fill="#ed7d6f" d="M 824.5,737.5 C 825.451,738.919 825.784,740.585 825.5,742.5C 824.941,758.495 824.441,774.495 824,790.5C 823.548,793.877 822.882,797.211 822,800.5C 814.746,813.341 807.746,826.341 801,839.5C 799.374,842.128 797.374,844.461 795,846.5C 799.962,821.725 803.962,796.725 807,771.5C 813.102,760.297 818.935,748.963 824.5,737.5 Z"/></g>
<g><path style="opacity:1" fill="#653832" d="M 825.5,742.5 C 825.784,740.585 825.451,738.919 824.5,737.5C 824.987,736.527 825.487,735.527 826,734.5C 826.801,737.367 826.634,740.034 825.5,742.5 Z"/></g>
<g><path style="opacity:1" fill="#606060" d="M 637.5,1023.5 C 513.167,1023.5 388.833,1023.5 264.5,1023.5C 270.758,1006.56 276.924,989.563 283,972.5C 291.839,938.811 300.839,905.144 310,871.5C 317.863,835.596 321.863,799.262 322,762.5C 323,758.833 324,755.167 325,751.5C 359.254,780.425 394.088,808.592 429.5,836C 443.367,845.434 457.701,854.1 472.5,862C 477.083,863.145 481.749,863.811 486.5,864C 515.368,894.533 543.868,925.366 572,956.5C 594.344,978.344 616.177,1000.68 637.5,1023.5 Z"/></g>
<g><path style="opacity:1" fill="#606060" d="M 795.5,1023.5 C 768.833,1023.5 742.167,1023.5 715.5,1023.5C 734.199,992.108 751.366,959.775 767,926.5C 777.861,902.249 786.528,877.249 793,851.5C 799.495,847.338 804.162,841.672 807,834.5C 805.114,867.787 803.447,901.12 802,934.5C 799.501,964.148 797.335,993.815 795.5,1023.5 Z"/></g>
<g><path style="opacity:1" fill="#b2524f" d="M 643.5,839.5 C 650.058,842.449 656.391,845.949 662.5,850C 671.727,854.017 681.06,857.517 690.5,860.5C 688.07,865.764 684.07,867.597 678.5,866C 664.97,859.575 653.304,850.742 643.5,839.5 Z"/></g>
<g><path style="opacity:1" fill="#b45350" d="M 742.5,895.5 C 731.334,912.486 721.168,930.153 712,948.5C 708.078,953.289 703.578,953.789 698.5,950C 671.297,931.064 645.63,910.231 621.5,887.5C 621.56,886.957 621.893,886.624 622.5,886.5C 630.979,893.144 639.312,899.978 647.5,907C 658.334,912.581 668.668,918.914 678.5,926C 682.039,927.504 685.705,927.837 689.5,927C 708.511,918.505 726.178,908.005 742.5,895.5 Z"/></g>
</svg>
